<?xml version="1.0" encoding="UTF-8" standalone="no"?>
<!-- Created with Inkscape (http://www.inkscape.org/) -->

<svg
   width="227.31364mm"
   height="139.82918mm"
   viewBox="0 0 227.31364 139.82918"
   version="1.1"
   id="svg1"
   xml:space="preserve"
   xmlns="http://www.w3.org/2000/svg"
   xmlns:svg="http://www.w3.org/2000/svg"><defs
     id="defs1" /><g
     id="layer1"
     transform="translate(-37.34929,-80.14034)"><path
       d="m 37.349292,97.07368 c 0,-9.339792 7.593542,-16.933333 16.933333,-16.933333 H 155.88262 c 9.33979,0 16.93334,7.593541 16.93334,16.933333 v 76.2 c 0,9.33979 -7.59355,16.93334 -16.93334,16.93334 h -36.6977 l -32.728961,24.55333 c -1.27,0.9525 -2.989792,1.11125 -4.445,0.39687 -1.455209,-0.71437 -2.328334,-2.16958 -2.328334,-3.78354 v -21.16666 h -25.4 c -9.339791,0 -16.933333,-7.59355 -16.933333,-16.93334 z m 93.133338,8.46667 c 0,-1.37584 -0.68792,-2.69875 -1.82563,-3.4925 -1.13771,-0.79375 -2.59292,-0.97896 -3.88937,-0.47625 l -33.866671,12.7 c -1.640417,0.60854 -2.751667,2.19604 -2.751667,3.96875 v 8.46666 21.64292 c -1.322917,-0.3175 -2.751667,-0.47625 -4.233333,-0.47625 -7.011459,0 -12.7,3.78354 -12.7,8.46667 0,4.68312 5.688541,8.46666 12.7,8.46666 7.011458,0 12.7,-3.78354 12.7,-8.46666 v -26.69646 l 25.400001,-9.525 v 19.76437 c -1.32292,-0.3175 -2.75167,-0.47625 -4.23333,-0.47625 -7.01146,0 -12.7,3.78354 -12.7,8.46667 0,4.68312 5.68854,8.46667 12.7,8.46667 7.01145,0 12.7,-3.78355 12.7,-8.46667 v -33.86667 z"
       id="path1"
       style="stroke-width:0.264583" /><path
       d="m 212.11668,217.48905 c 3.30729,3.30729 8.67834,3.30729 11.98563,0 3.30729,-3.30729 3.30729,-8.67833 0,-11.98562 l -6.72042,-6.69396 h 4.94771 c 23.38917,0 42.33333,-18.94417 42.33333,-42.33333 0,-23.38917 -18.94416,-42.33334 -42.33333,-42.33334 h -33.86666 c -4.68313,0 -8.46667,3.78354 -8.46667,8.46667 0,4.68312 3.78354,8.46667 8.46667,8.46667 h 33.86666 c 14.02292,0 25.4,11.37708 25.4,25.4 0,14.02291 -11.37708,25.4 -25.4,25.4 h -4.94771 l 6.72042,-6.72042 c 3.30729,-3.30729 3.30729,-8.67833 0,-11.98563 -3.30729,-3.30729 -8.67834,-3.30729 -11.98563,0 l -21.16666,21.16667 c -3.30729,3.30729 -3.30729,8.67833 0,11.98563 z"
       id="path1-6"
       style="stroke-width:0.264583" /></g></svg>
